<?xml version="1.0" encoding="utf-8"?>
<!-- Generator: Adobe Illustrator 26.5.0, SVG Export Plug-In . SVG Version: 6.00 Build 0)  -->
<svg version="1.1" id="Layer_1" xmlns="http://www.w3.org/2000/svg" xmlns:xlink="http://www.w3.org/1999/xlink" x="0px" y="0px"
	 width="782.593px" height="128.51px" viewBox="0 0 782.593 128.51" style="enable-background:new 0 0 782.593 128.51;"
	 xml:space="preserve">
<style type="text/css">
	.st0{fill:none;}
	.st1{fill:#231F20;}
	.st2{fill:#1377BC;}
</style>
<g>
	<line class="st0" x1="115.525" y1="11.025" x2="115.325" y2="11.175"/>
	<line class="st0" x1="115.405" y1="71.395" x2="115.205" y2="71.235"/>
	<g>
		<g>
			<path class="st1" d="M64.218,105.805c-22.947,0-41.55-18.603-41.55-41.55c0-22.947,18.603-41.55,41.55-41.55
				c13.934,0,26.279,6.866,33.813,17.398l8-6.167c-9.398-12.932-24.638-21.357-41.813-21.357c-28.497,0-51.677,23.19-51.677,51.677
				c0,28.497,23.18,51.677,51.677,51.677c17.094,0,32.284-8.344,41.692-21.175l-7.868-6.37
				C90.507,98.929,78.163,105.805,64.218,105.805z"/>
			<g>
				<g>
					<path class="st2" d="M64.25,115.51C35.94,115.51,13,92.56,13,64.25C13,35.95,35.94,13,64.25,13c17.06,0,32.18,8.34,41.49,21.16
						l10.28-7.93C104.31,10.33,85.46,0,64.25,0C28.82,0,0,28.82,0,64.25s28.82,64.26,64.25,64.26c21.02,0,39.72-10.15,51.46-25.81
						l-10.09-8.17C96.29,107.25,81.23,115.51,64.25,115.51z"/>
				</g>
			</g>
		</g>
		<polygon class="st2" points="125.618,73.535 122.495,95.17 105.184,81.676 		"/>
	</g>
	<g>
		<path class="st1" d="M160.893,16.589h54.334v9.281h-44.859v29.713h44.473v9.281h-44.473v37.254h44.473v9.281h-53.947V16.589z"/>
		<path class="st1" d="M268.282,16.589h18.885c10.527,0,17.66,0.431,21.398,1.291c5.628,1.291,10.205,4.055,13.729,8.292
			c3.523,4.238,5.285,9.455,5.285,15.65c0,5.163-1.214,9.702-3.642,13.617c-2.428,3.916-5.897,6.874-10.409,8.874
			c-4.512,2.001-10.743,3.022-18.691,3.065l34.096,44.021h-11.721l-34.098-44.021h-5.356V111.4h-9.475V16.589z M277.756,25.87
			v32.227l16.333,0.13c6.326,0,11.006-0.601,14.041-1.805c3.034-1.203,5.402-3.126,7.102-5.769c1.7-2.643,2.55-5.596,2.55-8.863
			c0-3.179-0.861-6.069-2.582-8.669c-1.722-2.599-3.981-4.458-6.779-5.575c-2.798-1.117-7.446-1.676-13.944-1.676H277.756z"/>
		<path class="st1" d="M374.639,25.87v-9.281h51.95v9.281h-21.141V111.4h-9.668V25.87H374.639z"/>
		<path class="st1" d="M476.485,16.589h54.334v9.281H485.96v29.713h44.473v9.281H485.96v37.254h44.473v9.281h-53.947V16.589z"/>
		<path class="st1" d="M583.874,16.589h18.885c10.527,0,17.66,0.431,21.398,1.291c5.629,1.291,10.205,4.055,13.729,8.292
			c3.522,4.238,5.285,9.455,5.285,15.65c0,5.163-1.215,9.702-3.642,13.617c-2.428,3.916-5.897,6.874-10.409,8.874
			c-4.512,2.001-10.742,3.022-18.691,3.065l34.096,44.021h-11.722l-34.098-44.021h-5.356V111.4h-9.475V16.589z M593.349,25.87
			v32.227l16.333,0.13c6.326,0,11.006-0.601,14.04-1.805c3.035-1.203,5.402-3.126,7.103-5.769s2.55-5.596,2.55-8.863
			c0-3.179-0.861-6.069-2.582-8.669c-1.723-2.599-3.981-4.458-6.778-5.575c-2.798-1.117-7.447-1.676-13.944-1.676H593.349z"/>
		<path class="st1" d="M738.378,16.589l44.215,94.811h-10.234l-14.911-31.195h-40.845l-14.77,31.195h-10.57l44.795-94.811H738.378z
			 M737.182,36.733l-16.246,34.319h32.414L737.182,36.733z"/>
	</g>
</g>
</svg>
